<svg width="232" height="482" viewBox="0 0 232 482" fill="none" xmlns="http://www.w3.org/2000/svg">
<g opacity="0.3" clip-path="url(#clip0_4111_2019)" filter="url(#filter0_f_4111_2019)">
<path d="M102.361 84.562H-120.361C-145.256 84.562 -165.438 104.744 -165.438 129.639V352.361C-165.438 377.256 -145.256 397.438 -120.361 397.438H102.361C127.256 397.438 147.438 377.256 147.438 352.361V129.639C147.438 104.744 127.256 84.562 102.361 84.562Z" stroke="#048C80" stroke-miterlimit="10"/>
<path d="M104.508 179.56V242.843C45.7422 242.27 -2.14452 196.226 -5.62842 138.191V127.492H54.4519C54.4407 127.785 54.4407 128.077 54.4407 128.369C54.4407 156.274 76.7488 178.964 104.508 179.56Z" fill="url(#paint0_linear_4111_2019)"/>
<path d="M104.508 252.834V310.105C79.1313 310.757 58.3628 329.862 55.1037 354.507H-5.20142C-0.279011 297.967 46.8547 253.508 104.508 252.834Z" fill="url(#paint1_linear_4111_2019)"/>
</g>
<defs>
<filter id="filter0_f_4111_2019" x="-250" y="0" width="482" height="482" filterUnits="userSpaceOnUse" color-interpolation-filters="sRGB">
<feFlood flood-opacity="0" result="BackgroundImageFix"/>
<feBlend mode="normal" in="SourceGraphic" in2="BackgroundImageFix" result="shape"/>
<feGaussianBlur stdDeviation="42" result="effect1_foregroundBlur_4111_2019"/>
</filter>
<linearGradient id="paint0_linear_4111_2019" x1="104.508" y1="127.492" x2="-56.9262" y2="239.207" gradientUnits="userSpaceOnUse">
<stop stop-color="#AAD9D1"/>
<stop offset="1" stop-color="#017373"/>
</linearGradient>
<linearGradient id="paint1_linear_4111_2019" x1="104.508" y1="252.834" x2="-43.0561" y2="368.237" gradientUnits="userSpaceOnUse">
<stop stop-color="#AAD9D1"/>
<stop offset="1" stop-color="#017373"/>
</linearGradient>
<clipPath id="clip0_4111_2019">
<rect width="314" height="314" fill="white" transform="translate(-166 84)"/>
</clipPath>
</defs>
</svg>
