<svg xmlns="http://www.w3.org/2000/svg" aria-hidden="true" style="position:absolute;width:0;height:0;overflow:hidden">
  <defs>
    <symbol id="icon-burger" viewBox="0 0 57 32">
      <path d="M0 0h56.889v3.556h-56.889v-3.556z"></path>
      <path d="M0 14.222h56.889v3.556h-56.889v-3.556z"></path>
      <path d="M0 28.444h56.889v3.556h-56.889v-3.556z"></path>
    </symbol>
    <symbol id="icon-quote-icon" viewBox="0 0 51 32">
      <path d="M0 32 13.268 0h11.317l-7.024 32H0zm25.106 0L38.374 0h11.317l-7.155 32H25.105z"/>
    </symbol>
    <symbol id="icon-logoipsum1-icon" viewBox="0 0 162 32">
      <path d="M20.645 9.348A8 8 0 0 0 16.2 8V0a16 16 0 1 1-16 15.999h8a8.003 8.003 0 0 0 4.938 7.391 8.007 8.007 0 0 0 8.718-1.734c1.119-1.119 1.881-2.544 2.189-4.096s.15-3.16-.455-4.622a8 8 0 0 0-2.947-3.59z"/>
      <path d="M8.2 0a7.995 7.995 0 0 1-4.938 7.39 7.998 7.998 0 0 1-3.061.609v8a16.002 16.002 0 0 0 16-16h-8zM100.695 11.562h-3.882v12.33h3.882v-12.33zM97.246 9.253c.406.406.913.609 1.522.609s1.108-.203 1.497-.609c.39-.423.584-.93.584-1.522 0-.609-.194-1.116-.584-1.522s-.888-.609-1.497-.609-1.116.203-1.522.609c-.39.406-.584.913-.584 1.522 0 .592.194 1.099.584 1.522zM41.125 23.892V5.981h3.983v14.41h7.941v3.501H41.125zM60.222 24.171c-1.268 0-2.419-.279-3.45-.837-1.015-.575-1.818-1.353-2.41-2.334s-.888-2.08-.888-3.298.296-2.309.888-3.273 1.395-1.725 2.41-2.283c1.015-.575 2.165-.863 3.45-.863s2.436.279 3.45.837a6.32 6.32 0 0 1 2.41 2.309c.592.964.888 2.055.888 3.273s-.296 2.317-.888 3.298a6.513 6.513 0 0 1-2.41 2.334c-1.015.558-2.165.837-3.45.837zm0-3.527c.558 0 1.049-.118 1.472-.355.423-.254.744-.6.964-1.04.237-.457.355-.973.355-1.548s-.118-1.074-.355-1.497a2.493 2.493 0 0 0-.989-1.015c-.406-.254-.888-.381-1.446-.381-.541 0-1.023.127-1.446.381-.423.237-.753.575-.989 1.015s-.355.947-.355 1.522c0 .558.118 1.066.355 1.522.237.44.567.786.989 1.04.423.237.905.355 1.446.355zM70.045 28.712c1.032.474 2.224.71 3.577.71 1.319 0 2.495-.262 3.526-.787s1.844-1.251 2.436-2.182c.592-.93.888-2.03.888-3.298V11.561h-3.806v.828a4.124 4.124 0 0 0-.964-.6c-.66-.321-1.412-.482-2.258-.482-1.133 0-2.14.271-3.019.812a5.61 5.61 0 0 0-2.08 2.182c-.507.913-.761 1.945-.761 3.095 0 1.133.254 2.165.761 3.095s1.201 1.666 2.08 2.207c.879.541 1.886.812 3.019.812.829 0 1.581-.161 2.258-.482.328-.156.624-.339.888-.55v.779c0 .863-.279 1.531-.837 2.004-.541.474-1.294.71-2.258.71-.778 0-1.446-.135-2.004-.406a4.626 4.626 0 0 1-1.471-1.192l-2.385 2.385c.592.846 1.395 1.497 2.41 1.953zm5.53-9.006c-.389.237-.854.355-1.395.355s-1.015-.118-1.421-.355a2.504 2.504 0 0 1-.913-.964 2.873 2.873 0 0 1-.33-1.345c0-.507.11-.964.33-1.37s.533-.727.939-.964a2.715 2.715 0 0 1 1.395-.355c.541 0 1.006.118 1.395.355.406.237.71.558.913.964.22.406.33.863.33 1.37s-.11.964-.33 1.37a2.32 2.32 0 0 1-.913.939zM88.641 24.171c-1.269 0-2.419-.279-3.45-.837-1.015-.575-1.818-1.353-2.41-2.334s-.888-2.08-.888-3.298.296-2.309.888-3.273 1.395-1.725 2.41-2.283c1.014-.575 2.165-.863 3.45-.863s2.435.279 3.45.837a6.32 6.32 0 0 1 2.41 2.309c.592.964.888 2.055.888 3.273s-.296 2.317-.888 3.298a6.513 6.513 0 0 1-2.41 2.334c-1.014.558-2.165.837-3.45.837zm0-3.527c.558 0 1.048-.118 1.471-.355.422-.254.744-.6.964-1.04.237-.457.355-.973.355-1.548s-.118-1.074-.355-1.497a2.483 2.483 0 0 0-.99-1.015c-.406-.254-.888-.381-1.446-.381-.542 0-1.024.127-1.446.381-.423.237-.753.575-.99 1.015s-.355.947-.355 1.522c0 .558.118 1.066.355 1.522.237.44.566.786.99 1.04.422.237.905.355 1.446.355zM110.025 24.145c-.828 0-1.59-.161-2.283-.482a4.846 4.846 0 0 1-.989-.606v6.035h-3.831V11.561h3.882v.851a4.83 4.83 0 0 1 .938-.597 5.144 5.144 0 0 1 2.283-.507c1.167 0 2.199.279 3.095.837a5.766 5.766 0 0 1 2.131 2.283c.525.964.786 2.063.786 3.298s-.262 2.334-.786 3.298a5.773 5.773 0 0 1-2.131 2.283c-.896.558-1.928.837-3.095.837zm-.71-3.501c.558 0 1.04-.127 1.446-.381.423-.254.753-.601.99-1.04s.355-.939.355-1.497c0-.575-.118-1.082-.355-1.522s-.566-.778-.99-1.015c-.406-.254-.879-.381-1.421-.381s-1.023.127-1.446.381c-.406.237-.727.575-.964 1.015s-.355.947-.355 1.522c0 .558.11 1.057.33 1.497.237.44.566.787.99 1.04s.896.381 1.421.381zM119.837 23.917c.71.186 1.429.279 2.156.279 1.539 0 2.757-.355 3.654-1.065.913-.71 1.37-1.666 1.37-2.867 0-.778-.143-1.404-.431-1.877-.287-.49-.659-.88-1.116-1.167s-.939-.516-1.446-.685c-.507-.169-.99-.313-1.446-.431s-.829-.254-1.117-.406c-.287-.152-.431-.355-.431-.609 0-.237.11-.414.33-.533.22-.135.55-.203.99-.203.457 0 .922.093 1.395.279.49.186.93.507 1.319.964l2.207-2.233c-.558-.71-1.285-1.243-2.182-1.598-.879-.372-1.843-.558-2.892-.558-.998 0-1.869.169-2.613.507s-1.32.803-1.726 1.395c-.406.575-.609 1.26-.609 2.055 0 .744.144 1.362.431 1.852.287.474.66.846 1.116 1.116s.939.482 1.446.634l1.446.431c.456.118.829.262 1.116.431.305.152.457.38.457.685 0 .237-.127.423-.381.558-.237.135-.583.203-1.04.203-.66 0-1.269-.118-1.826-.355a4.445 4.445 0 0 1-1.446-1.04l-2.207 2.233c.423.457.93.863 1.522 1.218.609.338 1.26.6 1.954.786zM134.095 24.171c-1.133 0-2.139-.228-3.018-.685a5.306 5.306 0 0 1-2.03-1.928c-.491-.829-.736-1.776-.736-2.841v-7.154h3.882v7.104c0 .423.067.786.203 1.091.152.305.372.541.659.71s.634.254 1.04.254c.575 0 1.032-.178 1.37-.533.338-.372.507-.879.507-1.522v-7.104h3.882v7.129c0 1.082-.245 2.038-.736 2.867a5.284 5.284 0 0 1-2.03 1.928c-.862.457-1.86.685-2.994.685zM145.665 11.562h-3.882v12.33h3.882v-7.205c0-.423.085-.778.254-1.066a1.85 1.85 0 0 1 .736-.66 2.108 2.108 0 0 1 1.04-.254c.558 0 1.023.178 1.395.533.39.338.584.82.584 1.446v7.205h3.882v-7.205c0-.423.085-.778.254-1.066.186-.288.431-.507.736-.66a2.105 2.105 0 0 1 1.04-.254c.558 0 1.023.178 1.395.533.389.338.583.82.583 1.446v7.205h3.882v-7.636c0-1.032-.22-1.911-.66-2.638a4.238 4.238 0 0 0-1.75-1.7c-.727-.406-1.565-.609-2.512-.609-.964 0-1.835.211-2.613.634a4.736 4.736 0 0 0-1.326 1.043 4.32 4.32 0 0 0-1.288-1.094c-.676-.389-1.446-.584-2.308-.584-.914 0-1.734.195-2.461.584a4.24 4.24 0 0 0-.863.582v-.911z"/>
    </symbol>
    <symbol id="icon-logoipsum2-icon" viewBox="0 0 176 32">
      <path d="M16.818 32c8.736 0 15.818-7.163 15.818-16V4.8c0-1.273-.5-2.494-1.39-3.394S29.149 0 27.891 0H17.609v7.019c0 1.602.096 3.261.927 4.624.595.977 1.39 1.813 2.332 2.452s2.009 1.065 3.128 1.25l.303.05a.636.636 0 0 1 .428.605.64.64 0 0 1-.428.605l-.303.05c-1.635.27-3.146 1.053-4.317 2.238s-1.946 2.713-2.213 4.367l-.049.306a.626.626 0 0 1-.967.314.64.64 0 0 1-.231-.314l-.049-.306c-.183-1.132-.604-2.211-1.236-3.164s-1.458-1.757-2.424-2.359c-1.348-.84-2.988-.938-4.571-.938h-6.92c.414 8.465 7.329 15.2 15.799 15.2z"/>
      <path d="M1 15.2h6.939c1.583 0 3.224-.098 4.571-.938a7.981 7.981 0 0 0 2.589-2.619c.83-1.363.927-3.022.927-4.624V0H5.744C4.485 0 3.278.506 2.388 1.406S.998 3.527.998 4.8v10.4zM37.742 1.6c0 .424-.167.831-.463 1.131s-.699.469-1.119.469c-.419 0-.822-.169-1.118-.469a1.612 1.612 0 0 1 0-2.262 1.572 1.572 0 0 1 2.237 0c.297.3.463.707.463 1.131zm130.702 8.083c4.422 0 6.556 3.124 6.556 6.742v6.796h-4.628v-5.99c0-1.64-.592-2.994-2.288-2.994s-2.262 1.354-2.262 2.994v5.989h-4.628v-5.989c0-1.64-.565-2.994-2.263-2.994s-2.288 1.354-2.288 2.994v5.989h-4.627v-6.796c0-3.618 2.133-6.742 6.555-6.742 2.417 0 4.165.963 4.962 2.551.848-1.588 2.699-2.552 4.91-2.552v.002zm-24.743 9.373c1.491 0 2.134-1.38 2.134-3.021v-5.832h4.627v6.405c0 3.827-2.211 7.004-6.761 7.004s-6.762-3.176-6.762-7.004v-6.405h4.628v5.832c0 1.64.642 3.021 2.134 3.021zm-13.565 4.582c-2.905 0-4.782-1.015-5.887-2.994l3.342-1.901c.463.833 1.156 1.25 2.313 1.25.951 0 1.388-.338 1.388-.755 0-1.588-6.787.026-6.787-5.024 0-2.448 2.056-4.426 5.553-4.426 3.059 0 4.73 1.51 5.476 2.968l-3.342 1.926c-.282-.781-1.157-1.25-2.031-1.25-.668 0-1.028.286-1.028.677 0 1.614 6.787.13 6.787 5.025 0 2.734-2.648 4.504-5.784 4.504zm-16.168 5.572h-4.628V16.687c0-3.984 2.956-6.874 7.07-6.874 4.011 0 7.07 3.098 7.07 6.874 0 4.166-2.725 6.926-6.813 6.926-.951 0-1.902-.286-2.699-.73v6.327zm2.442-9.998c1.466 0 2.442-1.146 2.442-2.5 0-1.379-.977-2.499-2.442-2.499s-2.442 1.12-2.442 2.5c0 1.354.977 2.499 2.442 2.499zM104.705 8.824c-1.517 0-2.776-1.276-2.776-2.812s1.259-2.812 2.776-2.812 2.777 1.276 2.777 2.812-1.26 2.812-2.777 2.812zm-2.314 1.379h4.628v13.018h-4.628V10.203zm-8.878 13.409c-4.011 0-7.07-3.124-7.07-6.926 0-3.775 3.059-6.899 7.07-6.899s7.07 3.124 7.07 6.899c0 3.802-3.059 6.926-7.07 6.926zm0-4.4c1.466 0 2.442-1.146 2.442-2.5 0-1.379-.977-2.525-2.442-2.525s-2.442 1.146-2.442 2.525c0 1.354.977 2.5 2.442 2.5zM77.705 29.6c-3.187 0-5.502-1.432-6.684-3.984l3.83-2.082c.411.886 1.182 1.797 2.776 1.797 1.672 0 2.777-1.068 2.906-2.942-.617.547-1.594.963-3.059.963-3.574 0-6.454-2.786-6.454-6.691 0-3.774 3.06-6.847 7.071-6.847 4.113 0 7.07 2.89 7.07 6.874v5.155c0 4.686-3.214 7.758-7.456 7.758zm.308-10.648c1.388 0 2.442-.964 2.442-2.396 0-1.406-1.054-2.343-2.442-2.343-1.363 0-2.442.938-2.442 2.344 0 1.432 1.08 2.394 2.442 2.394v.001zm-14.842 4.66c-4.011 0-7.071-3.124-7.071-6.926 0-3.775 3.06-6.899 7.071-6.899s7.07 3.124 7.07 6.899c0 3.802-3.059 6.926-7.07 6.926zm0-4.4c1.466 0 2.442-1.146 2.442-2.5 0-1.379-.977-2.525-2.442-2.525s-2.442 1.146-2.442 2.525c0 1.354.977 2.5 2.442 2.5zM47.674 5.648v13.147h7.661v4.426h-8.304c-2.93 0-4.113-1.562-4.113-4.036V5.647h4.756z"/>
    </symbol>
    <symbol id="icon-logoipsum3-icon" viewBox="0 0 142 32">
      <path d="M12.2 22.4H21v8h-8.8c-6.627 0-12-5.373-12-12V0h8v18.4a4.003 4.003 0 0 0 4 4zM36.2 8a7.191 7.191 0 0 0-5.091 2.109 7.197 7.197 0 0 0 0 10.182 7.197 7.197 0 0 0 10.182 0A7.201 7.201 0 0 0 36.2 8zM21 15.2C21 6.806 27.806 0 36.2 0s15.2 6.806 15.2 15.2c0 8.394-6.806 15.2-15.2 15.2S21 23.594 21 15.2zM122.6 8a7.2 7.2 0 1 0 0 14.4 7.2 7.2 0 0 0 0-14.4zm-15.2 7.2c0-8.394 6.806-15.2 15.2-15.2s15.2 6.806 15.2 15.2c0 8.394-6.806 15.2-15.2 15.2s-15.2-6.806-15.2-15.2zM68.2 0h22.4c8.394 0 15.2 6.806 15.2 15.2v1.009c0 2.493-.613 4.948-1.786 7.148L99.4 32l-4.277-2.285a15.188 15.188 0 0 1-4.523.685H68.2c-8.394 0-15.2-6.806-15.2-15.2S59.806 0 68.2 0zm29.6 15.2A7.2 7.2 0 0 0 90.6 8H68.2a7.191 7.191 0 0 0-5.091 2.109 7.197 7.197 0 0 0 0 10.182A7.197 7.197 0 0 0 68.2 22.4h22.4a7.199 7.199 0 0 0 7.2-7.144V15.2zM141 2a2 2 0 1 1-4.001-.001A2 2 0 0 1 141 2z"/>
    </symbol>
    <symbol id="icon-team-plan-icon" viewBox="0 0 32 32">
      <path d="M31.221 7.502v8.486c-7.88-.077-14.301-6.251-14.768-14.033V.52h8.056c-.002.039-.002.078-.002.118a6.864 6.864 0 0 0 6.714 6.864zM15.247 1.122c0 8.096-6.433 14.686-14.467 14.94V7.567A6.866 6.866 0 0 0 7.164.718c0-.066-.002-.131-.003-.197h8.073c.009.199.014.399.014.601zM15.144 30.962H7.06a6.867 6.867 0 0 0-6.281-5.987v-7.689c7.589.262 13.739 6.183 14.365 13.676zM31.221 17.328v7.68a6.864 6.864 0 0 0-6.625 5.954h-8.087c.66-7.582 6.98-13.543 14.711-13.634z"/>
    </symbol>
    <symbol id="icon-individual-plan-icon" viewBox="0 0 32 32">
      <path d="M17.122 26.578a16.036 16.036 0 0 1 3.733-5.889l.031-.031a16.062 16.062 0 0 1 5.864-3.746 15.955 15.955 0 0 1 4.1-.905 15.655 15.655 0 0 1-4.088-.779 15.464 15.464 0 0 1-6.08-3.759 15.482 15.482 0 0 1-3.759-6.08 15.73 15.73 0 0 1-.791-4.401l-.057.057a15.946 15.946 0 0 1-.927 4.364 16.077 16.077 0 0 1-3.73 5.844l-.012.012a16.056 16.056 0 0 1-5.827 3.732 15.988 15.988 0 0 1-4.393.938l-.018.018c1.489.053 2.968.316 4.392.788a15.485 15.485 0 0 1 6.088 3.763 15.494 15.494 0 0 1 3.762 6.088c.473 1.424.736 2.903.789 4.392l.01-.01c.094-1.49.398-2.972.911-4.398l.003.001z"/>
    </symbol>
    <symbol id="icon-button-play-icon" viewBox="0 0 28 32">
      <path d="M27.868 15.367 1.081.095C.857-.033.582-.031.359.099s-.36.37-.36.629v30.545c0 .259.137.499.36.629s.498.132.722.004l26.787-15.272a.728.728 0 0 0 0-1.266z"/>
    </symbol>
    <symbol id="icon-integrations-icon" viewBox="0 0 32 32">
      <path d="M7.298 21.707A5.336 5.336 0 0 1 5.334 32a5.333 5.333 0 0 1-1.777-10.363V10.363a5.333 5.333 0 1 1 3.554 0v5.636a8.849 8.849 0 0 1 5.333-1.777h7.111c2.46 0 4.53-1.665 5.146-3.929A5.336 5.336 0 0 1 26.665 0a5.333 5.333 0 0 1 1.648 10.407 8.891 8.891 0 0 1-8.76 7.371h-7.111a5.337 5.337 0 0 0-5.147 3.929z"/>
    </symbol>
    <symbol id="icon-ai-icon" viewBox="0 0 29 32">
      <path d="m6.812 19.556.757-7.111H.001V8.889h7.947L8.894 0h3.62l-.946 8.889h7.18L19.694 0h3.62l-.946 8.889h6.433v3.556h-6.812l-.757 7.111H28.8v3.556h-7.947l-.946 8.889h-3.62l.946-8.889h-7.18l-.946 8.889h-3.62l.946-8.889H0v-3.556h6.812zm3.62 0h7.18l.757-7.111h-7.18l-.757 7.111z"/>
    </symbol>
    <symbol id="icon-custom-icon" viewBox="0 0 32 32">
      <path d="M0 17.619h8.808A29.127 29.127 0 0 0 13.511 32C6.333 30.876.725 24.971 0 17.619zm0-3.238C.725 7.029 6.333 1.124 13.511 0a29.127 29.127 0 0 0-4.703 14.381H0zm32 0h-8.808A29.127 29.127 0 0 0 18.489 0C25.668 1.123 31.275 7.029 32 14.381zm0 3.238C31.275 24.971 25.668 30.876 18.489 32a29.127 29.127 0 0 0 4.703-14.381H32zm-19.97 0h7.941a25.895 25.895 0 0 1-3.97 12.293 25.884 25.884 0 0 1-3.97-12.293zm0-3.238A25.895 25.895 0 0 1 16 2.088a25.884 25.884 0 0 1 3.97 12.293h-7.941z"/>
    </symbol>
    <symbol id="icon-access-icon" viewBox="0 0 37 32">
      <path d="M1.613 12.645h4.839V32H1.613A1.613 1.613 0 0 1 0 30.387V14.258c0-.891.722-1.613 1.613-1.613zm8.537-2.085L20.474.237a.806.806 0 0 1 1.054-.075l1.375 1.031a2.418 2.418 0 0 1 .893 2.532l-1.86 7.307h10.323a3.226 3.226 0 0 1 3.226 3.226v3.394c0 .421-.083.839-.243 1.228l-4.991 12.121a1.614 1.614 0 0 1-1.492.999H11.291a1.613 1.613 0 0 1-1.613-1.613V11.7c0-.428.17-.838.472-1.14z"/>
    </symbol>
    <symbol id="icon-arrow-icon" viewBox="0 0 32 32">
      <path d="M8.154 7.909v4.281h8.151V7.909H8.154z"/>
      <path d="m20.587 7.909-4.283 4.283h-.554v.555l-9.247 9.247 3.027 3.027 9.803-9.803.002 8.124 4.281-.001V12.192l-.002-1.255.001-.001V7.912l-.002-.002h-3.024z"/>
    </symbol>
    <symbol id="icon-enterprise-plan-icon" viewBox="0 0 32 32">
      <path d="M31.07 15.426v.008h-4.715v-.121c0-5.604-4.544-10.148-10.147-10.148-.06 0-.121 0-.181.002V.412C24.319.427 31.04 7.138 31.07 15.426z"/>
      <path d="M31.067 15.239c0-.093-.005-.185-.006-.279.003.093.005.185.006.279zM31.058 14.885c-.003-.113-.012-.225-.018-.338 0 .017.003.032.003.048.008.096.012.193.015.289zM30.996 13.996v-.005l.012.119a1.314 1.314 0 0 0-.008-.069l-.005-.045z"/>
      <path d="M30.996 13.992c-.006-.069-.015-.137-.021-.205l.012.089c.005.039.008.077.011.116h-.002zM31.01 14.135l-.002-.024a.763.763 0 0 1 .009.095l.003.057c-.003-.042-.006-.086-.011-.128zM30.891 13.152l-.005-.032c0 .008.003.015.003.021v.011h.002zM30.891 13.157v-.005c.015.102.033.205.045.309v.006l-.045-.31zM31.07 15.426c0-.063-.002-.125-.003-.187 0 .044.003.086.003.13v.057zM31.07 30.503v.048h-4.717c.002-.035.002-.069.002-.104a10.116 10.116 0 0 0-3.323-7.511l-.063-.056a10.11 10.11 0 0 0-6.76-2.582c-.06 0-.121 0-.181.002v-4.868a15 15 0 0 1 9.686 3.549 15.07 15.07 0 0 1 3.354 4.01 14.987 14.987 0 0 1 2.003 7.511zM16 15.426v.008h-4.715v-.065a10.113 10.113 0 0 0-2.638-6.824 10.135 10.135 0 0 0-4.18-2.762c-.024-.011-.048-.018-.074-.027a10.156 10.156 0 0 0-3.255-.533c-.069 0-.139 0-.208.003V.413h1.292a14.94 14.94 0 0 1 6.291 1.989 15.17 15.17 0 0 1 4.048 3.44l.069.086A15.003 15.003 0 0 1 16 15.427zM16.027 25.571v4.868H16a14.99 14.99 0 0 1-9.393-3.285 15.042 15.042 0 0 1-2.212-2.172 15.003 15.003 0 0 1-3.463-9.548H6.06a10.118 10.118 0 0 0 2.587 6.76 10.16 10.16 0 0 0 3.983 2.729c1.059.401 2.203.627 3.397.648z"/>
    </symbol>
    <symbol id="icon-collab-icon" viewBox="0 0 32 32">
      <path d="M21.026 1.489v4.112l-5.102 5.102h-.118l-5.102-5.102V1.487c1.613-.579 3.349-.895 5.16-.895s3.549.316 5.161.896zM21.026 26.128v4.112c-1.613.58-3.35.896-5.161.896s-3.547-.315-5.16-.895v-4.114l5.102-5.102h.118l5.102 5.102z"/>
      <path d="m28.909 7.923-2.781 2.781h-5.103V5.602l2.781-2.781a15.33 15.33 0 0 1 5.103 5.102zM10.703 21.026v5.102L7.921 28.91a15.37 15.37 0 0 1-5.102-5.104L5.6 21.025h5.104zM28.909 23.807a15.37 15.37 0 0 1-5.102 5.104l-2.782-2.782v-5.102h5.103l2.781 2.781zM10.703 5.601v5.102H5.599L2.818 7.922A15.342 15.342 0 0 1 7.922 2.82l2.781 2.781zM31.136 15.865c0 1.811-.316 3.549-.896 5.162h-4.111l-5.103-5.103v-.116l5.103-5.103h4.111c.58 1.613.896 3.35.896 5.161z"/>
      <path d="M10.703 15.807v.116l-5.104 5.103H1.488c-.58-1.613-.896-3.35-.896-5.162s.316-3.549.896-5.161h4.111l5.104 5.103z"/>
    </symbol>
    <symbol id="icon-logoipsum4-icon" viewBox="0 0 178 32">
      <path d="M99.684 23.619h3.73V9.548h-3.73v14.071zm0-16.265h3.73V4.008h-3.73v3.346zM105.818 28.227h3.73v-6.199h.054c.795 1.207 2.085 2.002 4.059 2.002 3.621 0 6.09-2.88 6.09-7.433 0-4.389-2.386-7.433-6.117-7.433-1.92 0-3.237.905-4.142 2.139h-.082V9.548h-3.593v18.679zm7.049-7.296c-2.222 0-3.401-1.673-3.401-4.224 0-2.523.932-4.526 3.264-4.526 2.304 0 3.236 1.865 3.236 4.526s-1.206 4.224-3.099 4.224zM127.193 24.03c3.511 0 5.925-1.701 5.925-4.526 0-3.291-2.606-3.95-4.965-4.443-2.002-.411-3.867-.521-3.867-1.728 0-1.015.96-1.563 2.414-1.563 1.591 0 2.551.549 2.715 2.057h3.374c-.274-2.825-2.331-4.663-6.034-4.663-3.21 0-5.733 1.454-5.733 4.498 0 3.072 2.469 3.758 4.992 4.251 1.92.384 3.702.521 3.702 1.865 0 .987-.932 1.618-2.578 1.618-1.674 0-2.826-.713-3.072-2.331h-3.456c.219 2.99 2.496 4.965 6.582 4.965zM147.28 23.619V9.548h-3.73v8.119c0 1.865-1.07 3.182-2.825 3.182-1.591 0-2.331-.905-2.331-2.551v-8.75h-3.703v9.381c0 3.072 1.755 5.074 4.882 5.074 1.975 0 3.072-.741 4.032-2.03h.082v1.646h3.593zM149.693 23.619h3.73v-8.174c0-1.865 1.015-3.072 2.524-3.072 1.371 0 2.166.823 2.166 2.414v8.832h3.73v-8.174c0-1.865.96-3.072 2.523-3.072 1.372 0 2.167.823 2.167 2.414v8.832h3.73v-9.463c0-3.072-1.674-4.992-4.636-4.992-1.782 0-3.264.933-4.224 2.469h-.054c-.686-1.481-2.112-2.469-3.895-2.469-1.947 0-3.318.987-4.086 2.277h-.082V9.548h-3.594v14.071zM2.459 23.619h3.73V4.008h-3.73v19.611zM15.311 24.03c4.361 0 7.351-3.237 7.351-7.433s-2.99-7.433-7.351-7.433-7.351 3.237-7.351 7.433 2.99 7.433 7.351 7.433zm0-2.852c-2.304 0-3.566-1.838-3.566-4.581s1.262-4.608 3.566-4.608c2.277 0 3.566 1.865 3.566 4.608s-1.289 4.581-3.566 4.581zM30.594 28.419c2.085 0 3.895-.494 5.074-1.591 1.042-.96 1.673-2.304 1.673-4.279V9.548h-3.593v1.481h-.055c-.85-1.179-2.139-1.865-3.895-1.865-3.566 0-6.089 2.688-6.089 6.885 0 4.251 3.072 6.72 6.199 6.72 1.783 0 2.852-.713 3.675-1.646h.082v1.536c0 1.92-1.015 2.935-3.127 2.935-1.728 0-2.524-.686-2.825-1.563H24.01c.384 2.743 2.743 4.389 6.583 4.389zm-.054-8.64c-1.92 0-3.182-1.399-3.182-3.785 0-2.359 1.262-3.84 3.154-3.84 2.249 0 3.346 1.755 3.346 3.813 0 2.085-.96 3.813-3.319 3.813zM46.409 24.03c4.361 0 7.351-3.237 7.351-7.433s-2.99-7.433-7.351-7.433-7.351 3.237-7.351 7.433c0 4.197 2.99 7.433 7.351 7.433zm0-2.852c-2.304 0-3.566-1.838-3.566-4.581s1.262-4.608 3.566-4.608c2.277 0 3.566 1.865 3.566 4.608s-1.289 4.581-3.566 4.581zM171.62 7.238c0-.631.512-1.143 1.143-1.143h2.286a1.143 1.143 0 0 1 0 2.286h-2.286a1.143 1.143 0 0 1-1.143-1.143zM76.382 0c8.836 0 16 7.163 16 16s-7.164 16-16 16c-8.837 0-16-7.163-16-16s7.163-16 16-16zm-.578 1.197c-1.825.257-3.563 1.724-4.913 4.177a16.785 16.785 0 0 0-1.052 2.346 26.771 26.771 0 0 1 5.965-.775V1.197zm-7.317 6.908a18.506 18.506 0 0 1 1.391-3.288c.669-1.216 1.463-2.266 2.357-3.073a14.876 14.876 0 0 0-10.109 10.109c.807-.894 1.857-1.688 3.073-2.357a18.506 18.506 0 0 1 3.288-1.391zm-.384 1.352a26.771 26.771 0 0 0-.775 5.965H61.58c.257-1.825 1.724-3.563 4.177-4.913a16.733 16.733 0 0 1 2.346-1.052zm.382 5.965c.048-2.308.38-4.475.93-6.39 1.915-.55 4.081-.882 6.389-.93V10.6a8.513 8.513 0 0 1-4.822 4.821h-2.498zm-1.157 1.156H61.58c.257 1.825 1.724 3.563 4.177 4.912.711.391 1.498.745 2.346 1.052a26.771 26.771 0 0 1-.775-5.965zm2.086 6.39c-.55-1.915-.882-4.081-.93-6.389h2.498a8.516 8.516 0 0 1 4.822 4.821v2.498c-2.308-.048-4.475-.38-6.389-.93zm-.927.927a18.506 18.506 0 0 1-3.288-1.391c-1.216-.669-2.266-1.463-3.073-2.357a14.876 14.876 0 0 0 10.109 10.109c-.894-.807-1.688-1.857-2.357-3.073a18.506 18.506 0 0 1-1.391-3.288zm7.317 6.908c-1.825-.257-3.563-1.724-4.913-4.177a16.733 16.733 0 0 1-1.052-2.346c1.835.461 3.85.733 5.965.775v5.748zm4.726-.547c.894-.807 1.688-1.857 2.357-3.073a18.432 18.432 0 0 0 1.391-3.288 18.506 18.506 0 0 0 3.288-1.391c1.216-.669 2.266-1.463 3.073-2.357A14.878 14.878 0 0 1 80.53 30.256zm2.396-5.976a16.682 16.682 0 0 1-1.053 2.346c-1.349 2.453-3.087 3.92-4.912 4.177v-5.748a26.771 26.771 0 0 0 5.965-.775zm1.736-1.737a16.68 16.68 0 0 0 2.346-1.052c2.454-1.349 3.92-3.087 4.177-4.912h-5.748a26.771 26.771 0 0 1-.775 5.965zm-.382-5.965c-.048 2.308-.38 4.475-.93 6.389-1.914.55-4.081.882-6.389.93v-2.496a8.514 8.514 0 0 1 4.822-4.823h2.497zm1.157-1.156h5.748c-.257-1.825-1.723-3.563-4.177-4.913a16.733 16.733 0 0 0-2.346-1.052c.461 1.835.733 3.85.775 5.965zm-2.087-6.39c.55 1.915.882 4.081.93 6.39h-2.497a8.51 8.51 0 0 1-4.822-4.823V8.103c2.308.048 4.475.38 6.389.93zm.928-.927c1.201.383 2.306.851 3.288 1.391 1.216.669 2.266 1.463 3.073 2.357A14.878 14.878 0 0 0 80.53 1.744c.894.807 1.688 1.857 2.357 3.073.54.982 1.009 2.087 1.391 3.288zM76.96 1.197c1.825.257 3.563 1.724 4.912 4.177.391.712.745 1.498 1.053 2.346a26.771 26.771 0 0 0-5.965-.775V1.197z"/>
    </symbol>
    <symbol id="icon-close-btn-icon" viewBox="0 0 31 32">
      <path d="m2.92 1.205 27.849 27.849-1.741 1.741L1.179 2.946 2.92 1.205z"/>
      <path d="M1.18 29.054 29.029 1.205l1.741 1.741L2.921 30.795 1.18 29.054z"/>
    </symbol>
    <symbol id="icon-check-icon" viewBox="0 0 45 32">
      <path d="M16.552 31.385a3.07 3.07 0 0 1-2.162-.883L-.001 16.317l4.323-4.263 12.229 12.054L41.009 0l4.323 4.263-26.62 26.239a3.07 3.07 0 0 1-2.162.883z"/>
    </symbol>
    <symbol id="icon-facebook-icon" viewBox="0 0 18 32">
      <path d="M13.616 5.312h3.008V.224A41.953 41.953 0 0 0 12.24 0C7.888 0 4.912 2.656 4.912 7.52v4.192H0v5.696h4.912V32H10.8V17.408h4.896l.736-5.696H10.8V8.08c0-1.68.448-2.768 2.816-2.768z"/>
    </symbol>
    <symbol id="icon-storage-icon" viewBox="0 0 32 32">
      <path d="M0 0h31.185c.45 0 .815.377.815.842a.856.856 0 0 1-.108.418l-5.821 10.53 5.821 10.529a.858.858 0 0 1-.303 1.149.79.79 0 0 1-.404.111H3.259V32H0V0z"/>
    </symbol>
    <symbol id="icon-youtube-icon" viewBox="0 0 43 32">
      <path d="M42.326 11.638a16.2 16.2 0 0 0-1.733-7.867 5.562 5.562 0 0 0-3.276-1.905c-5.3-.481-10.622-.678-15.943-.59a149.621 149.621 0 0 0-15.886.571 5.47 5.47 0 0 0-2.781 1.41C.993 4.838.802 7.543.612 9.828a92.102 92.102 0 0 0 0 12.343c.055 1.286.247 2.563.571 3.81a5.98 5.98 0 0 0 1.352 2.59 5.457 5.457 0 0 0 2.838 1.486c4.106.507 8.244.717 12.381.629 6.667.095 12.514 0 19.429-.533a5.48 5.48 0 0 0 2.914-1.486 4.753 4.753 0 0 0 1.162-1.905 20.137 20.137 0 0 0 .99-6.476c.076-1.067.076-7.505.076-8.648zm-25.257 9.791V9.639l11.276 5.924c-3.162 1.752-7.333 3.733-11.276 5.867z"/>
    </symbol>
    <symbol id="icon-linkedin-icon" viewBox="0 0 30 32">
      <path d="M27.394 1.185H2.298A2.151 2.151 0 0 0 .296 2.484c-.111.26-.171.538-.175.82v25.393a2.143 2.143 0 0 0 .65 1.511 2.135 2.135 0 0 0 1.527.608h25.096a2.151 2.151 0 0 0 2.002-1.299c.111-.26.171-.538.175-.82V3.304a2.143 2.143 0 0 0-.65-1.511 2.135 2.135 0 0 0-1.527-.608zm-18.34 24.8H4.61V12.652h4.444v13.333zm-2.223-15.2A2.307 2.307 0 0 1 4.52 8.474a2.312 2.312 0 0 1 2.311-2.311 2.313 2.313 0 0 1 1.811.577 2.32 2.32 0 0 1 0 3.468 2.338 2.338 0 0 1-1.811.577zm18.252 15.2h-4.444v-7.156c0-1.793-.637-2.963-2.252-2.963a2.443 2.443 0 0 0-2.281 1.615 2.96 2.96 0 0 0-.148 1.081v7.407h-4.444V12.636h4.444v1.881a4.44 4.44 0 0 1 4.014-2.222c2.963 0 5.111 1.911 5.111 6.015v7.674z"/>
    </symbol>
    <symbol id="icon-twitter-icon" viewBox="0 0 39 32">
      <path d="M38.136 4.19a16.17 16.17 0 0 1-4.495 1.219 7.867 7.867 0 0 0 3.448-4.324 15.65 15.65 0 0 1-4.971 1.905 7.806 7.806 0 0 0-9.422-1.594 7.81 7.81 0 0 0-3.912 8.718A22.167 22.167 0 0 1 2.689 1.942a7.927 7.927 0 0 0-1.048 3.943 7.792 7.792 0 0 0 3.467 6.495 7.723 7.723 0 0 1-3.543-.971v.095a7.807 7.807 0 0 0 6.285 7.619 7.481 7.481 0 0 1-2.095.324 9.369 9.369 0 0 1-1.467-.133 7.831 7.831 0 0 0 7.295 5.41 15.647 15.647 0 0 1-9.638 3.352 15.16 15.16 0 0 1-1.905-.114 22.041 22.041 0 0 0 11.981 3.524A22.073 22.073 0 0 0 34.325 9.238v-1.01a16.063 16.063 0 0 0 3.81-4.038z"/>
    </symbol>
    <symbol id="icon-logo-icon" viewBox="0 0 32 32">
      <path d="M17.936 30.737H8.534c-1.306 0-2.432 0-3.333-.121-.965-.13-1.891-.423-2.642-1.175-.752-.75-1.045-1.677-1.175-2.642-.121-.902-.121-2.028-.121-3.333V8.535c0-1.306 0-2.432.121-3.333.13-.965.423-1.891 1.175-2.642.75-.752 1.677-1.045 2.642-1.175.902-.121 2.028-.121 3.333-.121h14.931c1.306 0 2.432 0 3.333.121.965.13 1.891.423 2.642 1.175.752.75 1.045 1.677 1.175 2.642.121.902.121 2.028.121 3.333v10.72c.003 1.172.004 2.213-.449 3.142s-1.278 1.567-2.203 2.284l-5.927 4.61c-.657.511-1.241.967-1.944 1.208-.704.242-1.443.239-2.277.239zM24.842 16a1.476 1.476 0 0 0-1.474-1.474h-6.885c-1.08 0-1.957.877-1.957 1.957v6.885a1.476 1.476 0 0 0 2.516 1.042c.276-.276.432-.651.432-1.042v-5.895h5.895a1.476 1.476 0 0 0 1.474-1.474z"/>
    </symbol>
  </defs>
</svg>
