<svg width="594" height="608" viewBox="0 0 594 608" fill="none" xmlns="http://www.w3.org/2000/svg">
<g opacity="0.3" clip-path="url(#clip0_4111_307)" filter="url(#filter0_f_4111_307)">
<path d="M440.467 92.5211H139.012C105.316 92.5211 78 119.837 78 153.533V454.988C78 488.684 105.316 516 139.012 516H440.467C474.163 516 501.479 488.684 501.479 454.988V153.533C501.479 119.837 474.163 92.5211 440.467 92.5211Z" stroke="#048C80" stroke-miterlimit="10"/>
<path d="M435.462 159.8V303.956H290.956L435.219 159.8H435.462Z" fill="url(#paint0_linear_4111_307)"/>
<path d="M146.8 159.45H290.956V303.956L146.8 159.694V159.45Z" fill="url(#paint1_linear_4111_307)"/>
<path d="M146.45 448.113V303.956H290.956L146.709 448.113H146.45Z" fill="url(#paint2_linear_4111_307)"/>
<path d="M435.113 448.462H290.956V303.956L435.113 448.204V448.462Z" fill="url(#paint3_linear_4111_307)"/>
</g>
<defs>
<filter id="filter0_f_4111_307" x="-14" y="-1" width="609" height="609" filterUnits="userSpaceOnUse" color-interpolation-filters="sRGB">
<feFlood flood-opacity="0" result="BackgroundImageFix"/>
<feBlend mode="normal" in="SourceGraphic" in2="BackgroundImageFix" result="shape"/>
<feGaussianBlur stdDeviation="46" result="effect1_foregroundBlur_4111_307"/>
</filter>
<linearGradient id="paint0_linear_4111_307" x1="435.462" y1="159.8" x2="230.44" y2="308.757" gradientUnits="userSpaceOnUse">
<stop stop-color="#AAD9D1"/>
<stop offset="1" stop-color="#017373"/>
</linearGradient>
<linearGradient id="paint1_linear_4111_307" x1="290.956" y1="159.45" x2="85.7457" y2="307.823" gradientUnits="userSpaceOnUse">
<stop stop-color="#AAD9D1"/>
<stop offset="1" stop-color="#017373"/>
</linearGradient>
<linearGradient id="paint2_linear_4111_307" x1="290.956" y1="303.956" x2="85.9334" y2="452.913" gradientUnits="userSpaceOnUse">
<stop stop-color="#AAD9D1"/>
<stop offset="1" stop-color="#017373"/>
</linearGradient>
<linearGradient id="paint3_linear_4111_307" x1="435.113" y1="303.956" x2="229.902" y2="452.329" gradientUnits="userSpaceOnUse">
<stop stop-color="#AAD9D1"/>
<stop offset="1" stop-color="#017373"/>
</linearGradient>
<clipPath id="clip0_4111_307">
<rect width="425" height="425" fill="white" transform="translate(78 91)"/>
</clipPath>
</defs>
</svg>
