<svg width="432" height="632" viewBox="0 0 432 632" fill="none" xmlns="http://www.w3.org/2000/svg">
<g opacity="0.3" clip-path="url(#clip0_4111_1074)" filter="url(#filter0_f_4111_1074)">
<path d="M524.188 282.924L352.668 108.171C333.496 88.6371 302.119 88.3441 282.585 107.516L107.832 279.036C88.2982 298.208 88.0052 329.585 107.177 349.119L278.697 523.872C297.869 543.405 329.246 543.698 348.78 524.526L523.533 353.007C543.067 333.835 543.36 302.457 524.188 282.924Z" stroke="#048C80" stroke-miterlimit="10"/>
<path d="M482.339 318.303L398.771 400.324L316.551 316.554L482.2 318.162L482.339 318.303Z" fill="url(#paint0_linear_4111_1074)"/>
<path d="M318.3 150.766L400.321 234.334L316.551 316.554L318.159 150.905L318.3 150.766Z" fill="url(#paint1_linear_4111_1074)"/>
<path d="M150.764 314.804L234.331 232.783L316.551 316.554L150.911 314.954L150.764 314.804Z" fill="url(#paint2_linear_4111_1074)"/>
<path d="M314.802 482.341L232.781 398.774L316.551 316.554L314.952 482.194L314.802 482.341Z" fill="url(#paint3_linear_4111_1074)"/>
</g>
<defs>
<filter id="filter0_f_4111_1074" x="-19.5366" y="-20.0635" width="672.186" height="672.186" filterUnits="userSpaceOnUse" color-interpolation-filters="sRGB">
<feFlood flood-opacity="0" result="BackgroundImageFix"/>
<feBlend mode="normal" in="SourceGraphic" in2="BackgroundImageFix" result="shape"/>
<feGaussianBlur stdDeviation="46" result="effect1_foregroundBlur_4111_1074"/>
</filter>
<linearGradient id="paint0_linear_4111_1074" x1="482.339" y1="318.303" x2="279.336" y2="284.203" gradientUnits="userSpaceOnUse">
<stop stop-color="#AAD9D1"/>
<stop offset="1" stop-color="#017373"/>
</linearGradient>
<linearGradient id="paint1_linear_4111_1074" x1="400.321" y1="234.334" x2="197.551" y2="199.793" gradientUnits="userSpaceOnUse">
<stop stop-color="#AAD9D1"/>
<stop offset="1" stop-color="#017373"/>
</linearGradient>
<linearGradient id="paint2_linear_4111_1074" x1="316.551" y1="316.554" x2="113.549" y2="282.454" gradientUnits="userSpaceOnUse">
<stop stop-color="#AAD9D1"/>
<stop offset="1" stop-color="#017373"/>
</linearGradient>
<linearGradient id="paint3_linear_4111_1074" x1="398.572" y1="400.121" x2="195.802" y2="365.58" gradientUnits="userSpaceOnUse">
<stop stop-color="#AAD9D1"/>
<stop offset="1" stop-color="#017373"/>
</linearGradient>
<clipPath id="clip0_4111_1074">
<rect width="345.214" height="345.214" fill="white" transform="translate(318.835 71.9365) rotate(45.535)"/>
</clipPath>
</defs>
</svg>